<svg xmlns="http://www.w3.org/2000/svg" width="55.079" height="56.618" viewBox="0 0 55.079 56.618"><defs><style>.a{fill:#505050;}</style></defs><g transform="translate(0 0.02)"><g transform="translate(0 -0.02)"><path class="a" d="M1.19,111.05a14.738,14.738,0,0,0,3.743,4.723,2.338,2.338,0,0,0,2.073.8c.143-.9-.744-1.907-1.236-2.325C3.18,111.94,2.123,111.439,1.19,111.05Z" transform="translate(-0.795 -74.157)"/><path class="a" d="M0,128.887a11.7,11.7,0,0,0,4.713.608,1.839,1.839,0,0,0,1.608-.691,2.5,2.5,0,0,0-1.993-.641A12.037,12.037,0,0,0,0,128.887Z" transform="translate(0 -85.584)"/><path class="a" d="M14.971,107.39a11.655,11.655,0,0,0,.9,4.65,1.912,1.912,0,0,0,1.156,1.329,2.5,2.5,0,0,0,0-2.083A11.7,11.7,0,0,0,14.971,107.39Z" transform="translate(-9.989 -71.713)"/><path class="a" d="M21.383,87.73,31.7,81.06a1.1,1.1,0,0,1,.286.027s8.37,11.058,13.15,15.522h0A112.805,112.805,0,0,0,57.632,84.1c.555-.472,1.863-1.3,1.863-1.3h.05c-1.133,4.072-6.264,15.319-11.174,21.985h0c-1.588.1-20.869-11.124-27-16.94A.534.534,0,0,0,21.383,87.73Z" transform="translate(-14.272 -54.129)"/><circle class="a" cx="4.195" cy="4.195" r="4.195" transform="translate(14.535 15.508)"/><path class="a" d="M111.1,70.938c.023,1.877-1.133,2.152-2.049,2.152s-1.661-1.176-1.661-2.627,1.2-2.813,2.116-2.813C110.15,67.65,111.08,69.62,111.1,70.938Z" transform="translate(-71.72 -45.173)"/><path class="a" d="M13.017,45.13a25.244,25.244,0,0,1,.462-9.1A23.058,23.058,0,0,1,17.3,27.646a25.539,25.539,0,0,1,3.079-3.481,24.779,24.779,0,0,1,3.677-2.84,25.167,25.167,0,0,1,8.576-3.418,27.137,27.137,0,0,1,9.194-.183l1.136.2c.379.076.751.169,1.126.256.189.037.372.1.558.143a2.136,2.136,0,0,0,.6,0,1.574,1.574,0,0,1,.6.03.4.4,0,0,1,.252.169.857.857,0,0,0,.219.249,27.131,27.131,0,0,1,4.212,1.907,26.347,26.347,0,0,1,7.1,5.9,25.084,25.084,0,0,1,5.979,17.2,25.872,25.872,0,0,1-.568,4.627A24.912,24.912,0,0,1,56.47,60.546a25.7,25.7,0,0,1-7.53,5.328,25.424,25.424,0,0,1-8.905,2.3,24.75,24.75,0,0,1-4.6-.07,23.025,23.025,0,0,1-2.282-.332c-.379-.066-.747-.169-1.123-.252l-.561-.12c-.186-.05-.369-.11-.555-.163-.365-.113-.734-.219-1.1-.332a2.659,2.659,0,0,0-.272-.1.81.81,0,0,0-.309,0,1.392,1.392,0,0,1-.641.05.242.242,0,0,1-.113-.083.6.6,0,0,1-.08-.189c-.04-.159-.073-.332-.159-.369l-.521-.246c-.332-.169-.7-.312-1.026-.508l-1-.545c-.332-.193-.664-.4-.977-.6-.163-.1-.332-.2-.488-.3l-.468-.332c-.312-.223-.634-.425-.937-.664a28.589,28.589,0,0,1-3.438-3.026c-.512-.568-1.04-1.126-1.5-1.737-.236-.3-.485-.595-.7-.913l-.332-.472a1,1,0,0,0-.468-.385.717.717,0,1,1,.977-.631h0a.917.917,0,0,0,.156.588l.306.465c.2.316.425.611.648.91.428.608.923,1.166,1.4,1.734.249.276.515.538.771.81.13.133.256.272.389.4l.412.379c.279.246.541.515.834.747l.877.7a22.254,22.254,0,0,0,3.82,2.325c.332.176.664.3,1.023.448l.515.216c.086.037.223-.053.362-.153a.6.6,0,0,1,.186-.093.213.213,0,0,1,.136.03c.169.066.286.272.422.445a.738.738,0,0,0,.223.2,2.474,2.474,0,0,0,.259.1c.352.113.711.213,1.066.332.176.05.352.11.535.156l.541.123c.362.08.721.176,1.086.239.734.116,1.465.256,2.206.306a24.075,24.075,0,0,0,12.954-2.382A24.739,24.739,0,0,0,60.276,52.259a25.127,25.127,0,0,0,1.87-8.536,23.886,23.886,0,0,0-.223-4.384,24.634,24.634,0,0,0-1-4.282,24.35,24.35,0,0,0-4.215-7.713,23.839,23.839,0,0,0-6.706-5.7A23.3,23.3,0,0,0,45.98,19.8a.837.837,0,0,0-.332.07.352.352,0,0,1-.286,0,2.255,2.255,0,0,1-.478-.3,1.82,1.82,0,0,0-.492-.3,5.118,5.118,0,0,0-.535-.149c-.362-.08-.721-.169-1.083-.242l-1.093-.2a24.042,24.042,0,0,0-8.825.332C21.231,21.58,12.5,32.983,13.153,45.144a.076.076,0,0,1-.066.073.073.073,0,0,1-.07-.086Z" transform="translate(-8.549 -11.626)"/><path class="a" d="M13.862,30.427a5.026,5.026,0,0,1,.332.452,3.029,3.029,0,0,1,.2.379,1.179,1.179,0,0,1,.086.332,2.6,2.6,0,0,1,.017.332,1,1,0,0,1-.153.458,2.358,2.358,0,0,1-.382.472,2.8,2.8,0,0,1-.5.375,1.717,1.717,0,0,1-.568.216c-.126,0-.2,0-.206-.043s.06-.13.209-.249a1.661,1.661,0,0,0,.332-.332,2.053,2.053,0,0,0,.239-.385,1.791,1.791,0,0,0,.136-.385.767.767,0,0,0,0-.332,1.05,1.05,0,0,0-.11-.332,1.256,1.256,0,0,0-.2-.259A.419.419,0,0,0,13,30.968a.538.538,0,0,0-.306.2l-.309.332c-.13.14-.266.286-.405.445l-.442.485c-.153.166-.3.332-.425.468l-.332.382-.209.233a1.379,1.379,0,0,0-.159.242.827.827,0,0,0-.08.206,1.235,1.235,0,0,1-.04.146.159.159,0,0,1-.06.083.2.2,0,0,1-.1.037,1,1,0,0,1-.156,0A.332.332,0,0,1,9.81,34.2a.286.286,0,0,1-.083-.156l-.043-.066a.578.578,0,0,0-.073-.09l-.083-.09-.056-.06-.163-.143-.233-.209c-.083-.076-.173-.156-.262-.242s-.173-.163-.242-.236a2.4,2.4,0,0,0-.242-.216,2.969,2.969,0,0,0-.256-.186.664.664,0,0,1-.335-.272.229.229,0,0,1,.076-.269A.362.362,0,0,1,8,31.872c.047,0,.133-.063.262-.183a3.876,3.876,0,0,0,.4-.425.143.143,0,0,0,.027-.179.534.534,0,0,0-.08-.12c-.027-.033-.066-.076-.116-.13-.11-.11-.159-.2-.146-.282a.372.372,0,0,1,.186-.236c.219-.149.379-.209.478-.186a.249.249,0,0,1,.176.226.186.186,0,0,0,.08.156c.043.017.106,0,.186-.093a4.4,4.4,0,0,0,.332-.332c.1-.113.2-.226.282-.332a3.66,3.66,0,0,0,.223-.3,1.289,1.289,0,0,0,.136-.252.462.462,0,0,1,.515-.332l.14.017a.332.332,0,0,1,.116.047.558.558,0,0,1,.113.093c.04.04.086.093.143.159s.153.169.236.252a3.152,3.152,0,0,0,.272.242.332.332,0,0,1,.12.159.5.5,0,0,1,0,.256.365.365,0,0,1-.106.189.458.458,0,0,1-.206.12.4.4,0,0,0-.106.06.78.78,0,0,0-.1.11c-.023.033-.073.093-.153.183s-.179.193-.292.332-.236.262-.369.409l-.415.448-.409.442-.382.369a.1.1,0,0,0-.033.066.173.173,0,0,0,.056.083c.047.04.08.063.1.063a.166.166,0,0,0,.083-.043.578.578,0,0,0,.06-.063l.08-.09.4-.438c.163-.183.332-.379.535-.585l.578-.631.545-.581.425-.445.213-.223a.817.817,0,0,1,.163-.116h.066a.382.382,0,0,1,.1.159.193.193,0,0,1-.08.156l-.206.216c-.12.123-.262.276-.432.458l-.551.6-.581.628-.512.555-.332.372a2.465,2.465,0,0,0-.189.246c-.03.053-.02.093.03.116a.183.183,0,0,0,.262-.063,2.2,2.2,0,0,1,.2-.229l.372-.4.462-.512.468-.521.4-.438.249-.266a1.605,1.605,0,0,0,.116-.149.611.611,0,0,0,.06-.153.664.664,0,0,1,.166-.3.638.638,0,0,1,.332-.189.392.392,0,0,1,.332.027A1.79,1.79,0,0,1,13.862,30.427Zm-3.3,4.65a1.043,1.043,0,0,1,.053.276,2.1,2.1,0,0,1,0,.332,1.993,1.993,0,0,1-.06.332,1.472,1.472,0,0,1-.11.282c-.04.09-.083.13-.13.116s-.07-.053-.076-.126a1.89,1.89,0,0,0-.126-.521,5.148,5.148,0,0,0-.309-.664.458.458,0,0,1-.08-.332c.027-.073.116-.126.266-.163a.369.369,0,0,1,.332.046.827.827,0,0,1,.239.415Zm.223-5.315a.156.156,0,0,0-.186,0c-.04.037-.11.1-.2.2s-.206.2-.332.332l-.389.409q-.2.2-.382.412l-.332.382c-.1.116-.179.206-.233.272a.213.213,0,0,0,0,.312c.02.017.043,0,.073-.023.3-.332.614-.691.947-1.053L10.8,29.852a.068.068,0,0,0,0-.1Zm.372.332c-.027-.05-.07-.046-.12,0l-.568.6-.492.535-.472.531-.452.508c-.05.053-.043.11.02.166s.08.066.1.066a.076.076,0,0,0,.07-.033c.07-.066.163-.163.276-.286L9.89,31.8c.13-.133.262-.276.4-.419l.375-.405.3-.332a2.326,2.326,0,0,0,.159-.183.508.508,0,0,0,.1-.2.332.332,0,0,0-.056-.173Zm.555,4.062c.11.063.163.12.166.169s-.053.09-.166.113a1.3,1.3,0,0,1-.565,0,1.09,1.09,0,0,1-.412-.173.412.412,0,0,1-.176-.249.262.262,0,0,1,.04-.216c.156-.193.309-.223.458-.086a2.276,2.276,0,0,0,.279.213c.13.076.249.153.375.226Zm.774-1.139c.126.063.183.12.173.166s-.1.086-.269.116a1.412,1.412,0,0,1-.415.027,1.508,1.508,0,0,1-.4-.11.332.332,0,0,1-.2-.186.3.3,0,0,1,.046-.272.272.272,0,0,1,.419-.09c.123.076.226.14.316.186s.2.1.329.159Zm.7-1.026c.1.043.146.093.136.149s-.09.1-.236.12a1.442,1.442,0,0,1-.754-.053c-.223-.083-.289-.213-.2-.385a.3.3,0,0,1,.455-.136,3.5,3.5,0,0,0,.6.3Z" transform="translate(-5.156 -19.27)"/><path class="a" d="M29.145,15.283a.359.359,0,0,1,.056.113.12.12,0,0,1-.017.1.442.442,0,0,1-.12.113c-.056.043-.14.1-.242.159-.173.1-.332.206-.521.332l-.5.332-.409.269c-.116.08-.2.136-.239.173-.169.136-.309.256-.428.359l-.3.272a2.289,2.289,0,0,0-.2.216,1.961,1.961,0,0,0-.143.2q-.093.153-.189.14a.229.229,0,0,1-.163-.146.438.438,0,0,1-.046-.236.8.8,0,0,1,.063-.256.615.615,0,0,1,.106-.146.465.465,0,0,1,.173-.106,1.774,1.774,0,0,0,.262-.126,3.4,3.4,0,0,0,.292-.213c.136-.106.259-.206.375-.292s.223-.169.332-.242a3.687,3.687,0,0,1,.332-.2l.332-.193.279-.166c.1-.06.2-.12.286-.183l.239-.159a1.509,1.509,0,0,0,.149-.113A.136.136,0,0,1,29.145,15.283Zm-.963-.85.13.236.08.146a.518.518,0,0,1,.093.468.531.531,0,0,1-.355.262.877.877,0,0,0-.146.053,1.777,1.777,0,0,0-.159.086l-.508.332c-.146.093-.276.183-.385.259s-.213.153-.3.226l-.252.2c-.027.023-.047.047-.063.063l-.076.086a.6.6,0,0,1-.076.08.332.332,0,0,1-.073.043.262.262,0,0,1-.262,0,.721.721,0,0,1-.266-.236c-.159-.219-.282-.379-.369-.475a1.289,1.289,0,0,0-.219-.206.159.159,0,0,1-.07-.12.375.375,0,0,1,.076-.319.246.246,0,0,1,.133-.083.681.681,0,0,0,.139-.05,1.13,1.13,0,0,0,.113-.066.807.807,0,0,0,.1-.07l.1-.07.116-.083.169-.12c.13-.1.3-.209.5-.332s.452-.292.751-.478a.542.542,0,0,0,.126-.09.249.249,0,0,0,.04-.066.242.242,0,0,1,.086-.143.794.794,0,0,1,.216-.1.332.332,0,0,1,.166,0,.2.2,0,0,1,.11.08c.063.083.126.173.189.262a2.2,2.2,0,0,1,.156.236Zm-2.588.468a.123.123,0,0,1,.113.116c0,.066-.047.126-.163.183a.751.751,0,0,1-.209.063,2.439,2.439,0,0,1-.272.027,1.525,1.525,0,0,1-.252,0,.309.309,0,0,1-.169-.066.458.458,0,0,1-.156-.262.485.485,0,0,1,.027-.3.332.332,0,0,1,.252-.223.209.209,0,0,1,.272.126.6.6,0,0,0,.242.226,1.069,1.069,0,0,0,.316.123Zm2.548-.8a.585.585,0,0,1,.046-.332.209.209,0,0,1,.146-.116.428.428,0,0,0,.116-.033,1.558,1.558,0,0,0,.2-.123c.046-.03.05-.073.017-.123-.086-.136-.166-.252-.239-.355a2.735,2.735,0,0,0-.189-.236,1.415,1.415,0,0,1-.415-.618q-.037-.209.239-.332a.412.412,0,0,1,.193-.04.332.332,0,0,1,.186.08,1.186,1.186,0,0,1,.209.226,3.545,3.545,0,0,1,.262.419,2.115,2.115,0,0,0,.136.239c.05.08.093.156.133.233s.066.076.12.043c.153-.09.279-.163.372-.223s.2-.12.3-.176a.837.837,0,0,1,.332-.14c.056,0,.106.053.156.156a.272.272,0,0,1,0,.279,1.036,1.036,0,0,1-.409.332c-.07.037-.133.076-.193.113s-.126.076-.189.11a.143.143,0,0,0-.066.183.309.309,0,0,0,.183.183,5.582,5.582,0,0,0,.641.236c.226.07.458.13.7.183a6.659,6.659,0,0,0,.714.116c.239.027.468.043.684.046a.292.292,0,0,1,.2.056.279.279,0,0,1,.07.176.794.794,0,0,1-.053.382,1.827,1.827,0,0,1-.276.452.468.468,0,0,1-.149.113.332.332,0,0,1-.206,0,1.2,1.2,0,0,1-.332-.123,4.255,4.255,0,0,1-.475-.3c-.166-.11-.359-.229-.571-.359s-.432-.213-.638-.335c-.05-.027-.086-.027-.1,0s0,.083.027.186a3.926,3.926,0,0,1,.252,1.076,1.817,1.817,0,0,1-.066.791,1,1,0,0,1-.266.445.382.382,0,0,1-.359.04q-.08-.037-.06.12a.448.448,0,0,1-.046.332.309.309,0,0,1-.256.09.332.332,0,0,0-.113.027,1.3,1.3,0,0,0-.193.1c-.249.159-.545.359-.88.595a.545.545,0,0,0-.093.076.438.438,0,0,0-.066.12.306.306,0,0,1-.13.13.262.262,0,0,1-.239.04.448.448,0,0,1-.226-.193,1.379,1.379,0,0,0-.159-.193,1.661,1.661,0,0,0-.189-.173.824.824,0,0,1-.252-.352c-.047-.14-.047-.236,0-.3a.428.428,0,0,1,.146-.11.485.485,0,0,0,.156-.073.943.943,0,0,0,.146-.1c.159-.12.292-.219.4-.3l.279-.2a2.325,2.325,0,0,1,.209-.126c.063-.03.13-.056.2-.083a1.146,1.146,0,0,0,.179-.086.269.269,0,0,0,.086-.1.236.236,0,0,1,.123-.126.4.4,0,0,1,.183-.056.538.538,0,0,1,.189.017.3.3,0,0,1,.12.116c.05.073.083.126.1.159l.066.12c.047.08.086.076.123,0a2.066,2.066,0,0,0,.2-.9,3.072,3.072,0,0,0-.292-1.163,1.774,1.774,0,0,0-.09-.176c-.037-.063-.076-.14-.123-.229s-.07-.073-.126-.037c-.133.1-.226.169-.276.216a.412.412,0,0,0-.1.116c-.086.163-.176.219-.272.173s-.149-.179-.163-.4Zm-1.79,1.206a.574.574,0,0,0-.1-.116.056.056,0,0,0-.063,0c-.093.063-.272.206-.541.432a.1.1,0,0,0-.03.07.332.332,0,0,0,.086.136c.05.063.093.083.13.056l.332-.249.223-.163c.027-.017.017-.07-.037-.153Zm.392.571a.694.694,0,0,0-.116-.166c-.02-.017-.047,0-.08,0-.106.073-.2.14-.272.2s-.159.136-.246.216a.056.056,0,0,0-.017.066,1.362,1.362,0,0,0,.09.149q.04.053.1,0a1.961,1.961,0,0,1,.229-.159c.076-.056.179-.126.309-.213.037,0,.04-.03,0-.083Zm1.95,1.106a.565.565,0,0,0-.133-.2.149.149,0,0,0-.149,0l-.246.133c-.07.04-.143.083-.213.13l-.233.169-.309.242c-.037.023-.04.056,0,.1l.11.166.116.213a.06.06,0,0,0,.093,0l.226-.153c.07-.047.143-.09.216-.133l.239-.136c.083-.05.179-.106.292-.166.053-.03.083-.063.083-.1A.737.737,0,0,0,28.694,17Zm-2.249-2.83a.076.076,0,0,1,.066.07c0,.033-.03.083-.1.153a.332.332,0,0,1-.2.076,1,1,0,0,1-.3,0,1.994,1.994,0,0,1-.292-.063.445.445,0,0,1-.2-.1.415.415,0,0,1-.14-.472.266.266,0,0,1,.1-.126.412.412,0,0,1,.143-.063.332.332,0,0,1,.213,0,.478.478,0,0,1,.149.123,1.541,1.541,0,0,0,.272.259.684.684,0,0,0,.276.156Zm1.385.923a.259.259,0,0,0-.086-.1.066.066,0,0,0-.07,0l-.249.149-.186.156c-.04.023-.043.056,0,.1l.11.159a.056.056,0,0,0,.09.017l.143-.076.156-.09c.086-.05.136-.093.146-.133a.2.2,0,0,0-.053-.163Zm-.332-.5c-.046-.09-.086-.143-.116-.153s-.066,0-.11.04l-.159.126-.2.136a.053.053,0,0,0-.023.053.462.462,0,0,0,.08.173.332.332,0,0,0,.066.08.07.07,0,0,0,.05,0l.086-.053.08-.05.106-.066.163-.093a.047.047,0,0,0,.023-.037.266.266,0,0,0-.06-.143Zm-.156-1.405a1.817,1.817,0,0,1-.409,1.056q-.1.12-.159.1c-.04,0-.053-.063-.04-.143a1.936,1.936,0,0,0,.02-.475,2.707,2.707,0,0,0-.143-.568.3.3,0,0,1,.04-.332c.076-.073.226-.066.448,0a.312.312,0,0,1,.176.14.332.332,0,0,1,.056.236Zm2.345-1.541a.349.349,0,0,1,.06.176.545.545,0,0,1-.09.256,1.608,1.608,0,0,1-.332.428c-.056.053-.11.066-.156.04A.126.126,0,0,1,29.1,12.4a1.538,1.538,0,0,0,0-.272,1.385,1.385,0,0,0-.06-.272c-.083-.242,0-.375.233-.4a.488.488,0,0,1,.252.03.462.462,0,0,1,.159.149Z" transform="translate(-16.344 -7.637)"/><path class="a" d="M53.423,3.385a.216.216,0,0,1,.1-.08.91.91,0,0,1,.159-.047c.14-.033.186-.11.133-.223-.09-.209-.163-.382-.216-.515a3.046,3.046,0,0,1-.113-.309,2.773,2.773,0,0,1-.1-.4.784.784,0,0,1,0-.242.163.163,0,0,1,.053-.113.332.332,0,0,1,.133-.047.492.492,0,0,1,.223,0,.332.332,0,0,1,.173.116.863.863,0,0,1,.133.249c.037.11.073.246.113.415.027.106.083.3.176.591,0,.06.047.073.093.05l.2-.1.219-.106.272-.123.332-.156a.87.87,0,0,1,.292-.086.146.146,0,0,1,.113.1c.073.2,0,.355-.239.482-.1.06-.193.106-.266.143l-.2.126-.233.09-.282.146c-.05.03-.06.073-.03.136s.08.156.143.262.176.282.332.518c.033.053.063.08.086.07s.053-.06.086-.159.06-.189.08-.272.04-.193.063-.332a.429.429,0,0,1,.123-.3.249.249,0,0,1,.229-.033c.163.047.233.209.213.485a2.14,2.14,0,0,1-.066.389,5.108,5.108,0,0,1-.186.548c-.033.066,0,.123.083.166a2.817,2.817,0,0,0,.432.186,1.172,1.172,0,0,0,.375.056.887.887,0,0,0,.352-.086,1.7,1.7,0,0,0,.372-.246c.047-.037.086-.043.12,0a.3.3,0,0,1,.043.209,1.943,1.943,0,0,1-.1.664,1.109,1.109,0,0,1-.256.419.655.655,0,0,1-.761.113,3.954,3.954,0,0,1-.435-.236,4.616,4.616,0,0,1-.515-.375.123.123,0,0,0-.126-.037.169.169,0,0,0-.09.1,1.852,1.852,0,0,1-.159.312,3.468,3.468,0,0,1-.279.375.535.535,0,0,1-.379.229.588.588,0,0,1-.432-.249c-.086-.09-.08-.163,0-.223a3.043,3.043,0,0,0,.412-.372,3.691,3.691,0,0,0,.392-.518.312.312,0,0,0,.053-.173.309.309,0,0,0-.073-.159,3.687,3.687,0,0,1-.332-.478c-.123-.2-.233-.4-.332-.6-.027-.07-.066-.083-.116-.043a.392.392,0,0,0-.1.076l-.159.173a.349.349,0,0,1-.236.126A.233.233,0,0,1,53.313,4a.213.213,0,0,1-.04-.2.08.08,0,0,0-.063-.09.133.133,0,0,1-.073-.04.409.409,0,0,1-.076-.116,1.4,1.4,0,0,0-.143-.216.279.279,0,0,0-.13-.086.136.136,0,0,0-.063,0,.687.687,0,0,0-.106.02,1,1,0,0,0-.209.056l-.365.11a.088.088,0,0,0-.086.056.472.472,0,0,0,0,.186A.252.252,0,0,0,52,3.793a.07.07,0,0,0,.07,0l.239-.086c.066-.02.156-.056.269-.1s.213-.023.216.09a.229.229,0,0,1-.179.236l-.13.053-.1.04-.073.03-.12.05c-.053.023-.07.053-.06.1a.246.246,0,0,0,.13.153.359.359,0,0,0,.246-.027,1.329,1.329,0,0,0,.292-.143A1.016,1.016,0,0,0,53.031,4q.08-.09.139-.07t.05.12a.854.854,0,0,1-.239.531c-.05.05-.053.083,0,.11a.274.274,0,0,1,.123.183l.07.229c.023.083.043.13.06.136s.037,0,.056-.027a1.259,1.259,0,0,0,.173-.428.166.166,0,0,1,.156-.143.176.176,0,0,1,.143.053.664.664,0,0,1,.11.216.309.309,0,0,1-.066.385l-.223.186-.163.149a.272.272,0,0,0-.063.073.146.146,0,0,0,0,.09.282.282,0,0,0,.063.13c.023.017.046,0,.076,0l.133-.066.14-.06c.133-.047.206-.037.226.03a.219.219,0,0,1,0,.156.435.435,0,0,1-.163.173l-.385.266-.405.262c-.143.093-.3.186-.468.289L52,7.3a.276.276,0,0,1-.442-.149c-.076-.219-.023-.365.163-.442.083-.03.149-.06.2-.083l.213-.1a.116.116,0,0,0,.05-.066.385.385,0,0,0-.027-.173.332.332,0,0,0-.043-.106.14.14,0,0,0-.07-.043l-.292-.1a2.952,2.952,0,0,1-.286-.123.249.249,0,0,1-.133-.179.442.442,0,0,1,.056-.316.08.08,0,0,1,.086-.05.149.149,0,0,1,.1.053c.06.06.11.11.153.146a1.518,1.518,0,0,0,.173.133c.043.03.07.043.08.033s0-.037,0-.083a.562.562,0,0,0-.04-.133,1.589,1.589,0,0,0-.056-.156.3.3,0,0,1,0-.252.332.332,0,0,1,.179-.126.219.219,0,0,1,.183,0,.332.332,0,0,1,.093.166l.249.953c.043.146.123.193.233.133s.113-.136.073-.272-.056-.193-.076-.266-.043-.136-.06-.193-.037-.12-.06-.186l-.07-.229c-.02-.063-.033-.11-.04-.136a.163.163,0,0,1,0-.08c0-.047-.023-.06-.076-.047a.947.947,0,0,1-.555.037.488.488,0,0,1-.252-.362.1.1,0,0,0-.04-.083c-.013-.007-.037,0-.066,0a1.328,1.328,0,0,0-.186.093,1.177,1.177,0,0,0-.1.076c-.066.066-.123.086-.173.06s-.07-.08-.066-.169a.784.784,0,0,1,.053-.306.163.163,0,0,1,.113-.093.512.512,0,0,0,.116-.023l.133-.04c.06-.017.076-.063.056-.14l-.05-.159a.075.075,0,0,0-.106-.073l-.159.05-.11.047-.11.037-.123.056a.189.189,0,0,0-.063.066.213.213,0,0,0,0,.113c.133.485.236.9.332,1.256a6.485,6.485,0,0,1,.166.917,4.252,4.252,0,0,1,.046.664,2.249,2.249,0,0,1-.046.488.482.482,0,0,1-.123.229.588.588,0,0,1-.219.14.6.6,0,0,1-.252.043.465.465,0,0,1-.233-.07c-.149-.093-.173-.193-.073-.306a.973.973,0,0,0,.169-.259,1.388,1.388,0,0,0,.11-.369,3.229,3.229,0,0,0,.033-.508,5.708,5.708,0,0,0-.076-.694,2.231,2.231,0,0,0-.07-.3c-.04-.126-.083-.269-.14-.422s-.116-.312-.186-.472a4.223,4.223,0,0,0-.223-.458.332.332,0,0,1-.02-.316.375.375,0,0,1,.332-.169.8.8,0,0,1,.12,0,.216.216,0,0,1,.066,0,.282.282,0,0,0,.12.037.379.379,0,0,0,.123-.033,1.3,1.3,0,0,1,.159-.066l.153-.053c.083-.033.116-.083.1-.156-.03-.159-.056-.289-.086-.392a2.989,2.989,0,0,0-.116-.359.332.332,0,0,1-.02-.266.492.492,0,0,1,.276-.186.236.236,0,0,1,.2-.017.332.332,0,0,1,.146.193.571.571,0,0,0,.076.14.063.063,0,0,0,.066.02c.136-.04.272-.08.409-.113s.259-.06.382-.083.223,0,.249.11a.213.213,0,0,1-.023.149.286.286,0,0,1-.159.116c-.1.037-.216.073-.332.106l-.385.116a.143.143,0,0,0-.08.043.1.1,0,0,0,0,.076l.037.113a.169.169,0,0,0,.04.086.1.1,0,0,0,.07,0l.216-.06.2-.043a1.3,1.3,0,0,0,.276-.073.312.312,0,0,0,.126-.093.136.136,0,0,1,.1-.07A.223.223,0,0,1,53,2.687a.455.455,0,0,1,.143.12.568.568,0,0,1,.11.179,1.418,1.418,0,0,1,.06.179q.02.093.03.179C53.35,3.435,53.376,3.455,53.423,3.385Zm1.631-2.063a.664.664,0,0,1,.09.209.631.631,0,0,1,0,.236.864.864,0,0,1-.169.425.953.953,0,0,1-.332.266c-.133.063-.183.02-.156-.136a1.6,1.6,0,0,0,0-.163V1.707a1.294,1.294,0,0,0,0-.183.259.259,0,0,1,.209-.312.312.312,0,0,1,.213,0,.276.276,0,0,1,.146.11Z" transform="translate(-33.384 -0.791)"/><path class="a" d="M79.585,4.215a.551.551,0,0,1-.256.531.521.521,0,0,1-.521.03,1.939,1.939,0,0,0-.332-.1l-.332-.063c-.242-.033-.512-.056-.8-.076s-.588-.027-.887-.023a7.56,7.56,0,0,0-.907.04,5.889,5.889,0,0,0-.847.126.861.861,0,0,0-.216.08,1.3,1.3,0,0,0-.189.123.332.332,0,0,1-.289.07.578.578,0,0,1-.292-.159.664.664,0,0,1-.169-.332.847.847,0,0,1,.023-.412,2.8,2.8,0,0,0,.086-.312q.033-.149.06-.289a1.748,1.748,0,0,0,.03-.289V2.418c0-.113-.02-.252-.033-.412a.226.226,0,0,1,.1-.226.438.438,0,0,1,.279-.066.242.242,0,0,1,.239.163,1.568,1.568,0,0,1,.04.495,5.064,5.064,0,0,1-.023.621,4.683,4.683,0,0,0,0,.571.382.382,0,0,0,.2.332.634.634,0,0,0,.448.093c.468-.047,1-.073,1.568-.08s1.2,0,1.86,0a.359.359,0,0,0,.239-.063.4.4,0,0,0,.113-.266,4.722,4.722,0,0,0,.04-.508,1.573,1.573,0,0,0,0-.312c-.03-.186-.05-.332-.06-.485a1.519,1.519,0,0,1,.027-.392.2.2,0,0,1,.176-.173.332.332,0,0,1,.262.083.472.472,0,0,1,.2.309,1.253,1.253,0,0,1,0,.432,3.147,3.147,0,0,0-.03.535,1.921,1.921,0,0,0,.066.468,2.756,2.756,0,0,1,.093.332A2.2,2.2,0,0,1,79.585,4.215ZM80.216.266a1.662,1.662,0,0,1-.149.282.664.664,0,0,1-.183.2,1.371,1.371,0,0,1-.252.126.751.751,0,0,1-.226.04.953.953,0,0,1-.249-.033,1.92,1.92,0,0,1-.3-.1,1.582,1.582,0,0,0-.229-.05l-.375-.05L77.764.628c-.179,0-.365-.027-.558-.033H76.06A5.61,5.61,0,0,0,75.4.621l-.531.03c-.159.017-.332.037-.5.063s-.332.05-.488.083-.286.06-.4.09a2.508,2.508,0,0,0-.246.073,1,1,0,0,1-.3.076A.189.189,0,0,1,72.785.96a.412.412,0,0,1-.06-.113.206.206,0,0,1,0-.14.634.634,0,0,1,.11-.186c.053-.073.13-.159.226-.269a1,1,0,0,1,.365-.266.332.332,0,0,1,.256.053,1.112,1.112,0,0,0,.123.053.664.664,0,0,0,.166.033,1.777,1.777,0,0,0,.252,0H74.6l.714-.033L75.981.07h4.056A.276.276,0,0,1,80.2.09C80.246.116,80.246.176,80.216.266Zm-1.76,1.485a2.089,2.089,0,0,0-.056.465c0,.239-.027.528-.04.874a.817.817,0,0,1-.1.412.538.538,0,0,1-.3.176.774.774,0,0,1-.262,0,1.734,1.734,0,0,1-.306-.07,2.058,2.058,0,0,0-.3-.043c-.143,0-.3-.02-.475-.02a4.8,4.8,0,0,0-.525.02,3.517,3.517,0,0,0-.448.06.047.047,0,0,0-.04.02l-.02.037q-.053.066-.289.07a.365.365,0,0,1-.242-.076.385.385,0,0,1-.13-.229,3.751,3.751,0,0,1-.053-.634,2.281,2.281,0,0,0,0-.236c0-.1-.017-.2-.027-.3L74.8,1.947a1.741,1.741,0,0,0-.033-.272.966.966,0,0,1,0-.405.292.292,0,0,1,.239-.216.422.422,0,0,1,.229-.03.352.352,0,0,1,.163.086.169.169,0,0,0,.126.07l.548-.056c.166,0,.332-.023.478-.027a4.189,4.189,0,0,1,.455,0,3.293,3.293,0,0,1,.495.06.332.332,0,0,0,.266-.07.428.428,0,0,1,.242-.06.458.458,0,0,1,.306.123.462.462,0,0,1,.186.282.664.664,0,0,1-.047.319ZM76.316,3.016a.665.665,0,0,0-.023-.223.574.574,0,0,1,0-.2c0-.066,0-.056-.043-.053h-.332l-.332.02-.04.02a.077.077,0,0,0,0,.073.52.52,0,0,1,0,.176v.183a.337.337,0,0,0,0,.05c0,.023.02.033.053.033a2.248,2.248,0,0,0,.332-.017h.332C76.3,3.082,76.316,3.059,76.316,3.016ZM76.3,1.648c0-.037,0-.056-.043-.053a3.432,3.432,0,0,0-.379.02,2.113,2.113,0,0,0-.332.04c-.04,0-.056.02-.056.063V2.1c0,.05.017.073.043.073l.332-.02a2.408,2.408,0,0,1,.332,0c.033,0,.05-.023.05-.066V1.867A.391.391,0,0,0,76.3,1.648Zm1.415.977a.027.027,0,0,0,0-.023l-.05-.02c-.093,0-.2-.02-.3-.023h-.332c-.037,0-.056,0-.056.047V2.82l.02.216a.083.083,0,0,0,.076.063h.153a1,1,0,0,1,.139,0,.546.546,0,0,0,.269-.04.3.3,0,0,0,.066-.179,2.3,2.3,0,0,0,.017-.259Zm.027-.747c0-.11,0-.176-.047-.2a.475.475,0,0,0-.216-.033A3.607,3.607,0,0,1,77,1.628h-.023a.092.092,0,0,1-.023.05c-.023.03,0,.136,0,.2v.213a.332.332,0,0,0,0,.056s0,.027.047.027l.332.027.332.023a.093.093,0,0,0,.05,0,.046.046,0,0,0,.023-.043,1.779,1.779,0,0,0,0-.183Z" transform="translate(-48.561 0.02)"/><path class="a" d="M80.483,63.165c-.02.159.066.143.136.1a17.465,17.465,0,0,0,1.88-1.535.332.332,0,0,0,.12-.186c.252-1.08,2.2-9.5,1.558-10.3-.684-.854-12.366.159-28.353,9.28a.176.176,0,0,0-.046.266l.555.634a.419.419,0,0,0,.535.086C59,60.252,71.976,52.789,82.748,52.55a.129.129,0,0,1,.116.156C82.824,56.363,81.067,61.6,80.483,63.165Z" transform="translate(-37.223 -34.059)"/></g></g></svg>